<svg viewBox="0 0 99 20" xmlns="http://www.w3.org/2000/svg">
  <path fill="var(--color-wordmark-prefix, #FFC700)" d="M6.059 19.351c-.92733 0-1.79833-.1733-2.613-.52-.81467-.3553-1.521-.858-2.119-1.508-.589333-.65-1.018333-1.417-1.2869999-2.301L2.666 14.294c.25133.806.689 1.4257 1.313 1.859.624.4247 1.31733.6327 2.08.624.68467-.0087 1.287-.169 1.807-.481.52-.312.92733-.7323 1.222-1.261.29467-.5373.442-1.1527.442-1.846 0-1.04-.325-1.898-.975-2.574-.64133-.676-1.482-1.014-2.522-1.014-.29467 0-.598.04333-.91.13-.30333.08667-.58933.19933-.858.338L2.991 7.924l6.604-5.837.286.78h-9.1V.279999h11.258V2.867L6.553 8.145l-.026-.884c1.17867 0 2.20133.26433 3.068.793.8667.52 1.534 1.23067 2.002 2.132.4767.8927.715 1.8937.715 3.003 0 1.196-.2817 2.2577-.845 3.185-.5547.9273-1.3043 1.6553-2.249 2.184-.936.5287-1.989.793-3.159.793Zm15.4769.039c-1.3087 0-2.4397-.325-3.393-.975-.9447-.65-1.677-1.534-2.197-2.652-.5113-1.1267-.767-2.392-.767-3.796 0-1.4127.26-2.67367.78-3.783.52-1.118 1.2567-1.99767 2.21-2.639.962-.65 2.1017-.975 3.419-.975 1.326 0 2.4397.325 3.341.975.91.64133 1.5947 1.521 2.054 2.639.468 1.118.702 2.379.702 3.783s-.234 2.665-.702 3.783c-.468 1.118-1.157 2.0063-2.067 2.665-.91.65-2.0367.975-3.38.975Zm.377-2.457c.8927 0 1.6207-.2123 2.184-.637.5633-.4247.975-1.0097 1.235-1.755.26-.7453.39-1.6033.39-2.574 0-.9707-.1343-1.8287-.403-2.574-.26-.74533-.6673-1.326-1.222-1.742-.546-.416-1.2437-.624-2.093-.624-.9013 0-1.6423.221-2.223.663-.5807.442-1.014 1.03567-1.3 1.781-.2773.7453-.416 1.5773-.416 2.496 0 .9273.1387 1.768.416 2.522.286.7453.7107 1.339 1.274 1.781.572.442 1.2913.663 2.158.663ZM25.7219 19V8.899h-.312V.279999h2.73V19h-2.418Z" />
  <path fill="var(--color-wordmark, #E2E4ED)" d="m35.8333 19-5.096-14.04h2.743l3.731 10.634 3.731-10.634h2.743L38.5893 19h-2.756Zm16.1734.39c-1.3953 0-2.6217-.3033-3.679-.91-1.0487-.6153-1.8677-1.469-2.457-2.561-.5807-1.1007-.871-2.3747-.871-3.822 0-1.534.286-2.86433.858-3.991.5807-1.12667 1.3867-1.99767 2.418-2.613 1.0313-.61533 2.2317-.923 3.601-.923 1.43 0 2.6477.33367 3.653 1.001 1.0053.65867 1.755 1.599 2.249 2.821.5027 1.222.702 2.6737.598 4.355h-2.717v-.988c-.0173-1.6293-.3293-2.834-.936-3.614-.598-.78-1.5123-1.17-2.743-1.17-1.3607 0-2.3833.429-3.068 1.287-.6847.858-1.027 2.0973-1.027 3.718 0 1.5427.3423 2.7387 1.027 3.588.6847.8407 1.6727 1.261 2.964 1.261.8493 0 1.5817-.1907 2.197-.572.624-.39 1.1093-.9447 1.456-1.664l2.665.845c-.546 1.2567-1.3737 2.2317-2.483 2.925-1.1093.6847-2.3443 1.027-3.705 1.027Zm-5.005-6.643v-2.119h10.023v2.119h-10.023ZM61.5534 19V4.96h2.418v3.406l-.338-.442c.1733-.45067.3986-.86233.676-1.235.2773-.38133.598-.69333.962-.936.3553-.26.7496-.45933 1.183-.598.442-.14733.8926-.234 1.352-.26.4593-.03467.9013-.013 1.326.065v2.548c-.4594-.12133-.9707-.156-1.534-.104-.5547.052-1.066.22967-1.534.533-.442.286-.793.63267-1.053 1.04-.2514.40733-.4334.86233-.546 1.365-.1127.494-.169 1.0183-.169 1.573V19h-2.743Zm15.1758.377c-1.7073 0-3.0983-.377-4.173-1.131-1.0746-.754-1.7333-1.8157-1.976-3.185l2.782-.429c.1734.728.572 1.3043 1.196 1.729.6327.416 1.417.624 2.353.624.8494 0 1.5124-.1733 1.989-.52.4854-.3467.728-.8233.728-1.43 0-.3553-.0866-.6413-.26-.858-.1646-.2253-.5156-.4377-1.053-.637-.5373-.1993-1.3563-.4463-2.457-.741-1.2046-.312-2.1623-.6457-2.873-1.001-.702-.364-1.2046-.7843-1.508-1.261-.2946-.4853-.442-1.07033-.442-1.755 0-.84933.2254-1.59033.676-2.223.4507-.63267 1.0834-1.12233 1.898-1.469.8234-.34667 1.7854-.52 2.886-.52 1.0747 0 2.0324.169 2.873.507.8407.338 1.521.819 2.041 1.443.52.61533.832 1.339.936 2.171l-2.782.507c-.0953-.676-.4116-1.209-.949-1.599-.5373-.39-1.235-.60233-2.093-.637-.8233-.03467-1.4906.104-2.002.416-.5113.30333-.767.72367-.767 1.261 0 .312.0954.57633.286.793.1994.21667.5807.42467 1.144.624.5634.1993 1.3954.4377 2.496.715 1.1787.3033 2.1147.6413 2.808 1.014.6934.364 1.1874.8017 1.482 1.313.3034.5027.455 1.1137.455 1.833 0 1.3867-.507 2.4743-1.521 3.263-1.0053.7887-2.3963 1.183-4.173 1.183Zm15.0575.013c-1.3953 0-2.6217-.3033-3.679-.91-1.0487-.6153-1.8677-1.469-2.457-2.561-.5807-1.1007-.871-2.3747-.871-3.822 0-1.534.286-2.86433.858-3.991.5807-1.12667 1.3867-1.99767 2.418-2.613 1.0313-.61533 2.2317-.923 3.601-.923 1.43 0 2.6477.33367 3.653 1.001 1.0053.65867 1.755 1.599 2.249 2.821.5027 1.222.702 2.6737.598 4.355h-2.717v-.988c-.0173-1.6293-.3293-2.834-.936-3.614-.598-.78-1.5123-1.17-2.743-1.17-1.3607 0-2.3833.429-3.068 1.287-.6847.858-1.027 2.0973-1.027 3.718 0 1.5427.3423 2.7387 1.027 3.588.6847.8407 1.6727 1.261 2.964 1.261.8493 0 1.5817-.1907 2.197-.572.624-.39 1.1093-.9447 1.456-1.664l2.665.845c-.546 1.2567-1.3737 2.2317-2.483 2.925-1.1093.6847-2.3443 1.027-3.705 1.027Zm-5.005-6.643v-2.119h10.023v2.119h-10.023Z" />
</svg>
